<?xml version="1.0" standalone="no"?>
<!DOCTYPE svg PUBLIC "-//W3C//DTD SVG 20010904//EN"
 "http://www.w3.org/TR/2001/REC-SVG-20010904/DTD/svg10.dtd">
<svg version="1.0" xmlns="http://www.w3.org/2000/svg"
 width="512.000000pt" height="512.000000pt" viewBox="0 0 512.000000 512.000000"
 preserveAspectRatio="xMidYMid meet">
<metadata>
Created by potrace 1.16, written by Peter Selinger 2001-2019
</metadata>
<g transform="translate(0.000000,512.000000) scale(0.100000,-0.100000)"
fill="#000000" stroke="none">
<path d="M3540 4731 c-79 -26 -148 -91 -168 -160 -16 -53 -17 -3737 -1 -3796
14 -53 99 -136 155 -153 134 -40 270 31 309 160 13 46 15 263 15 1893 0 2031
4 1906 -62 1981 -17 19 -49 44 -71 56 -44 22 -137 32 -177 19z"/>
<path d="M1190 4371 c-49 -16 -87 -40 -118 -75 -65 -75 -62 6 -62 -1561 0
-1252 2 -1428 15 -1473 39 -129 175 -200 309 -160 56 17 141 100 155 153 16
59 15 2903 -1 2956 -15 51 -70 114 -121 140 -44 23 -137 33 -177 20z"/>
<path d="M2754 4026 c-61 -19 -110 -61 -139 -119 l-25 -51 0 -1220 c0 -1372
-6 -1264 75 -1335 53 -46 94 -61 165 -61 71 0 112 15 165 61 81 71 75 -37 75
1335 l0 1220 -25 51 c-53 106 -174 155 -291 119z"/>
<path d="M420 3531 c-81 -26 -150 -92 -169 -164 -9 -30 -11 -192 -9 -577 3
-591 0 -560 69 -628 131 -128 352 -74 403 99 24 78 24 1030 1 1107 -19 62 -63
115 -118 144 -44 22 -137 32 -177 19z"/>
<path d="M1948 3525 c-59 -22 -105 -62 -133 -118 l-25 -51 0 -835 c0 -789 1
-838 19 -876 40 -88 121 -138 221 -138 100 0 181 50 221 138 18 38 19 87 19
876 l0 835 -25 51 c-54 108 -184 159 -297 118z"/>
<path d="M4310 3051 c-85 -28 -142 -84 -165 -165 -14 -46 -15 -144 -13 -762 3
-706 3 -709 25 -750 51 -95 129 -139 237 -132 83 5 148 43 191 112 l30 49 3
721 c2 523 0 733 -9 763 -14 53 -69 117 -122 144 -44 23 -137 33 -177 20z"/>
</g>
</svg>
